<svg width="671" height="154" viewBox="0 0 671 154" fill="none" xmlns="http://www.w3.org/2000/svg">
<g filter="url(#filter0_d_45_500)">
<mask id="path-1-outside-1_45_500" maskUnits="userSpaceOnUse" x="-0.581085" y="-0.481201" width="666" height="149" fill="black">
<rect fill="white" x="-0.581085" y="-0.481201" width="666" height="149"/>
<path d="M60.4649 132.288C53.8416 132.288 47.7069 131.31 42.0609 129.356C36.4148 127.402 31.3659 124.524 26.9141 120.724C22.571 116.924 18.9336 112.146 16.002 106.392L36.0347 93.525C39.0749 98.1939 42.8209 101.831 47.2726 104.437C51.8329 106.934 56.719 108.183 61.9307 108.183C66.2739 108.183 69.5312 107.314 71.7028 105.577C73.8744 103.84 74.9601 101.56 74.9601 98.7368C74.9601 96.9995 74.4715 95.4251 73.4943 94.0136C72.5171 92.6021 70.6713 91.2992 67.9568 90.1048C65.2424 88.8018 61.3878 87.6075 56.3932 86.5217C47.0555 84.3501 39.6721 81.6357 34.2432 78.3783C28.8143 75.121 24.9597 71.2121 22.6796 66.6518C20.3994 61.9829 19.2594 56.7169 19.2594 50.8537C19.2594 44.3389 20.888 38.4757 24.1454 33.2639C27.5113 27.9436 32.2888 23.7633 38.4778 20.7231C44.7753 17.5743 52.1587 15.9999 60.6278 15.9999C70.2913 15.9999 78.489 17.9001 85.2208 21.7003C91.9527 25.5006 97.2188 30.4409 101.019 36.5213L80.9863 50.8537C78.2718 47.2706 74.8516 44.719 70.7256 43.1989C66.7082 41.6788 62.7451 40.9187 58.8362 40.9187C54.8188 40.9187 51.6158 41.6788 49.227 43.1989C46.9469 44.719 45.8068 46.8905 45.8068 49.7136C45.8068 52.3195 47.0012 54.491 49.3899 56.2283C51.8872 57.857 56.719 59.4856 63.8851 61.1143C73.0057 63.2859 80.3891 65.9461 86.0352 69.0948C91.6812 72.2436 95.8072 76.1524 98.4131 80.8213C101.128 85.3816 102.485 90.9734 102.485 97.5967C102.485 104.329 100.748 110.3 97.273 115.512C93.9071 120.724 89.0754 124.85 82.7778 127.89C76.5888 130.822 69.1512 132.288 60.4649 132.288ZM145.37 131.636C137.227 131.636 130.06 129.845 123.871 126.261C117.791 122.678 113.014 117.684 109.539 111.278C106.065 104.871 104.327 97.5967 104.327 89.4533C104.327 81.4185 106.065 74.2523 109.539 67.9548C113.014 61.6572 117.791 56.7169 123.871 53.1338C130.06 49.4421 137.227 47.5963 145.37 47.5963C154.599 47.5963 162.525 49.8222 169.149 54.2739C175.772 58.7256 180.495 64.6974 183.318 72.1893L159.702 82.9386C158.291 79.8984 156.499 77.564 154.328 75.9353C152.156 74.198 149.279 73.3294 145.696 73.3294C141.461 73.3294 137.878 74.7952 134.946 77.7268C132.123 80.6585 130.712 84.5673 130.712 89.4533C130.712 94.5565 132.123 98.5739 134.946 101.506C137.878 104.329 141.461 105.74 145.696 105.74C149.279 105.74 152.156 104.926 154.328 103.297C156.499 101.668 158.291 99.3883 159.702 96.4566L183.318 106.88C180.495 114.372 175.718 120.398 168.986 124.959C162.362 129.41 154.491 131.636 145.37 131.636ZM188.162 129.519V18.6058H214.547V129.519H188.162ZM237.674 129.519V83.5901C237.674 79.4641 237.023 76.7496 235.72 75.4467C234.417 74.1437 232.517 73.4923 230.019 73.4923C228.173 73.4923 226.219 73.8723 224.156 74.6323C222.093 75.2838 220.03 76.3153 217.967 77.7268C216.013 79.0298 214.058 80.6042 212.104 82.45L203.309 65.186C206.023 62.1458 209.172 59.3228 212.755 56.7169C216.447 54.0024 220.41 51.8309 224.645 50.2022C228.988 48.4649 233.548 47.5963 238.325 47.5963C243.646 47.5963 247.989 48.5192 251.355 50.365C254.721 52.2109 257.327 54.7082 259.173 57.857C261.018 60.8972 262.267 64.3717 262.919 68.2805C263.679 72.1893 264.059 76.261 264.059 80.4956V129.519H237.674ZM309.141 130.985C301.106 130.985 294.049 129.302 287.968 125.936C281.997 122.57 277.328 117.792 273.962 111.603C270.596 105.414 268.913 98.0853 268.913 89.6162C268.913 81.4728 270.596 74.2523 273.962 67.9548C277.328 61.6572 281.997 56.7169 287.968 53.1338C294.049 49.4421 301.106 47.5963 309.141 47.5963C317.502 47.5963 324.668 49.4964 330.64 53.2967C336.612 57.0969 341.226 62.1458 344.483 68.4434C347.741 74.6323 349.369 81.5814 349.369 89.2905C349.369 91.0277 349.315 92.6021 349.207 94.0136C349.098 95.4251 348.935 96.5652 348.718 97.4338H288.62V79.5184H328.36L326.079 85.3816C326.079 80.2784 324.722 76.0982 322.008 72.8408C319.293 69.5834 315.113 67.9548 309.467 67.9548C304.255 67.9548 300.129 69.4749 297.089 72.5151C294.049 75.5553 292.529 79.627 292.529 84.7302V93.6879C292.529 99.2254 294.157 103.514 297.415 106.554C300.672 109.486 305.232 110.952 311.096 110.952C315.764 110.952 319.456 110.083 322.171 108.346C324.994 106.5 327.328 104.166 329.174 101.343L346.764 110.789C343.398 116.978 338.457 121.918 331.943 125.61C325.428 129.193 317.827 130.985 309.141 130.985ZM388.169 131.636C381.111 131.636 374.814 129.845 369.276 126.261C363.739 122.678 359.396 117.684 356.247 111.278C353.098 104.871 351.524 97.651 351.524 89.6162C351.524 81.4728 353.098 74.2523 356.247 67.9548C359.504 61.5486 363.902 56.554 369.439 52.9709C375.085 49.3878 381.437 47.5963 388.495 47.5963C395.444 47.5963 401.47 49.1707 406.573 52.3195C411.676 55.4682 415.639 60.1914 418.462 66.489C421.285 72.6779 422.697 80.387 422.697 89.6162C422.697 98.3025 421.231 105.794 418.299 112.092C415.368 118.389 411.296 123.221 406.084 126.587C400.981 129.953 395.009 131.636 388.169 131.636ZM393.381 106.229C397.724 106.229 401.361 104.709 404.293 101.668C407.224 98.5196 408.69 94.5022 408.69 89.6162C408.69 84.8387 407.224 80.8756 404.293 77.7268C401.361 74.4695 397.724 72.8408 393.381 72.8408C389.146 72.8408 385.563 74.4695 382.631 77.7268C379.808 80.8756 378.397 84.8387 378.397 89.6162C378.397 94.5022 379.808 98.5196 382.631 101.668C385.563 104.709 389.146 106.229 393.381 106.229ZM414.065 129.519L407.387 107.695H408.853V73.3294H407.387V18.6058H433.772V129.519H414.065ZM472.744 131.636C466.881 131.636 462.049 130.767 458.249 129.03C454.558 127.293 451.68 124.959 449.617 122.027C447.554 118.987 446.088 115.512 445.22 111.603C444.46 107.586 444.08 103.297 444.08 98.7368V49.7136H470.464V95.8052C470.464 99.8226 471.224 102.537 472.744 103.949C474.373 105.251 476.436 105.903 478.933 105.903C480.888 105.903 482.788 105.577 484.634 104.926C486.588 104.274 488.488 103.297 490.334 101.994C492.289 100.691 494.189 99.0082 496.035 96.9452L501.572 109.975H493.429V49.7136H519.976V129.519H500.432L495.057 113.069L504.667 114.209C502.061 117.141 499.075 119.964 495.709 122.678C492.343 125.284 488.705 127.456 484.797 129.193C480.996 130.822 476.979 131.636 472.744 131.636ZM556.408 130.333C552.064 130.333 547.993 129.519 544.192 127.89C540.392 126.153 537.298 123.384 534.909 119.584C532.629 115.784 531.489 110.735 531.489 104.437V18.6058H557.71V95.1537C557.71 99.2797 558.362 101.94 559.665 103.134C561.076 104.22 562.977 104.763 565.365 104.763V129.682C564.388 129.899 562.977 130.062 561.131 130.17C559.393 130.279 557.819 130.333 556.408 130.333ZM608.252 130.985C600.217 130.985 593.159 129.302 587.079 125.936C581.107 122.57 576.438 117.792 573.072 111.603C569.706 105.414 568.023 98.0853 568.023 89.6162C568.023 81.4728 569.706 74.2523 573.072 67.9548C576.438 61.6572 581.107 56.7169 587.079 53.1338C593.159 49.4421 600.217 47.5963 608.252 47.5963C616.612 47.5963 623.778 49.4964 629.75 53.2967C635.722 57.0969 640.337 62.1458 643.594 68.4434C646.851 74.6323 648.48 81.5814 648.48 89.2905C648.48 91.0277 648.426 92.6021 648.317 94.0136C648.209 95.4251 648.046 96.5652 647.829 97.4338H587.73V79.5184H627.47L625.19 85.3816C625.19 80.2784 623.833 76.0982 621.118 72.8408C618.404 69.5834 614.224 67.9548 608.577 67.9548C603.366 67.9548 599.24 69.4749 596.199 72.5151C593.159 75.5553 591.639 79.627 591.639 84.7302V93.6879C591.639 99.2254 593.268 103.514 596.525 106.554C599.783 109.486 604.343 110.952 610.206 110.952C614.875 110.952 618.567 110.083 621.281 108.346C624.104 106.5 626.439 104.166 628.284 101.343L645.874 110.789C642.508 116.978 637.568 121.918 631.053 125.61C624.538 129.193 616.938 130.985 608.252 130.985Z"/>
</mask>
<path d="M60.4649 132.288C53.8416 132.288 47.7069 131.31 42.0609 129.356C36.4148 127.402 31.3659 124.524 26.9141 120.724C22.571 116.924 18.9336 112.146 16.002 106.392L36.0347 93.525C39.0749 98.1939 42.8209 101.831 47.2726 104.437C51.8329 106.934 56.719 108.183 61.9307 108.183C66.2739 108.183 69.5312 107.314 71.7028 105.577C73.8744 103.84 74.9601 101.56 74.9601 98.7368C74.9601 96.9995 74.4715 95.4251 73.4943 94.0136C72.5171 92.6021 70.6713 91.2992 67.9568 90.1048C65.2424 88.8018 61.3878 87.6075 56.3932 86.5217C47.0555 84.3501 39.6721 81.6357 34.2432 78.3783C28.8143 75.121 24.9597 71.2121 22.6796 66.6518C20.3994 61.9829 19.2594 56.7169 19.2594 50.8537C19.2594 44.3389 20.888 38.4757 24.1454 33.2639C27.5113 27.9436 32.2888 23.7633 38.4778 20.7231C44.7753 17.5743 52.1587 15.9999 60.6278 15.9999C70.2913 15.9999 78.489 17.9001 85.2208 21.7003C91.9527 25.5006 97.2188 30.4409 101.019 36.5213L80.9863 50.8537C78.2718 47.2706 74.8516 44.719 70.7256 43.1989C66.7082 41.6788 62.7451 40.9187 58.8362 40.9187C54.8188 40.9187 51.6158 41.6788 49.227 43.1989C46.9469 44.719 45.8068 46.8905 45.8068 49.7136C45.8068 52.3195 47.0012 54.491 49.3899 56.2283C51.8872 57.857 56.719 59.4856 63.8851 61.1143C73.0057 63.2859 80.3891 65.9461 86.0352 69.0948C91.6812 72.2436 95.8072 76.1524 98.4131 80.8213C101.128 85.3816 102.485 90.9734 102.485 97.5967C102.485 104.329 100.748 110.3 97.273 115.512C93.9071 120.724 89.0754 124.85 82.7778 127.89C76.5888 130.822 69.1512 132.288 60.4649 132.288ZM145.37 131.636C137.227 131.636 130.06 129.845 123.871 126.261C117.791 122.678 113.014 117.684 109.539 111.278C106.065 104.871 104.327 97.5967 104.327 89.4533C104.327 81.4185 106.065 74.2523 109.539 67.9548C113.014 61.6572 117.791 56.7169 123.871 53.1338C130.06 49.4421 137.227 47.5963 145.37 47.5963C154.599 47.5963 162.525 49.8222 169.149 54.2739C175.772 58.7256 180.495 64.6974 183.318 72.1893L159.702 82.9386C158.291 79.8984 156.499 77.564 154.328 75.9353C152.156 74.198 149.279 73.3294 145.696 73.3294C141.461 73.3294 137.878 74.7952 134.946 77.7268C132.123 80.6585 130.712 84.5673 130.712 89.4533C130.712 94.5565 132.123 98.5739 134.946 101.506C137.878 104.329 141.461 105.74 145.696 105.74C149.279 105.74 152.156 104.926 154.328 103.297C156.499 101.668 158.291 99.3883 159.702 96.4566L183.318 106.88C180.495 114.372 175.718 120.398 168.986 124.959C162.362 129.41 154.491 131.636 145.37 131.636ZM188.162 129.519V18.6058H214.547V129.519H188.162ZM237.674 129.519V83.5901C237.674 79.4641 237.023 76.7496 235.72 75.4467C234.417 74.1437 232.517 73.4923 230.019 73.4923C228.173 73.4923 226.219 73.8723 224.156 74.6323C222.093 75.2838 220.03 76.3153 217.967 77.7268C216.013 79.0298 214.058 80.6042 212.104 82.45L203.309 65.186C206.023 62.1458 209.172 59.3228 212.755 56.7169C216.447 54.0024 220.41 51.8309 224.645 50.2022C228.988 48.4649 233.548 47.5963 238.325 47.5963C243.646 47.5963 247.989 48.5192 251.355 50.365C254.721 52.2109 257.327 54.7082 259.173 57.857C261.018 60.8972 262.267 64.3717 262.919 68.2805C263.679 72.1893 264.059 76.261 264.059 80.4956V129.519H237.674ZM309.141 130.985C301.106 130.985 294.049 129.302 287.968 125.936C281.997 122.57 277.328 117.792 273.962 111.603C270.596 105.414 268.913 98.0853 268.913 89.6162C268.913 81.4728 270.596 74.2523 273.962 67.9548C277.328 61.6572 281.997 56.7169 287.968 53.1338C294.049 49.4421 301.106 47.5963 309.141 47.5963C317.502 47.5963 324.668 49.4964 330.64 53.2967C336.612 57.0969 341.226 62.1458 344.483 68.4434C347.741 74.6323 349.369 81.5814 349.369 89.2905C349.369 91.0277 349.315 92.6021 349.207 94.0136C349.098 95.4251 348.935 96.5652 348.718 97.4338H288.62V79.5184H328.36L326.079 85.3816C326.079 80.2784 324.722 76.0982 322.008 72.8408C319.293 69.5834 315.113 67.9548 309.467 67.9548C304.255 67.9548 300.129 69.4749 297.089 72.5151C294.049 75.5553 292.529 79.627 292.529 84.7302V93.6879C292.529 99.2254 294.157 103.514 297.415 106.554C300.672 109.486 305.232 110.952 311.096 110.952C315.764 110.952 319.456 110.083 322.171 108.346C324.994 106.5 327.328 104.166 329.174 101.343L346.764 110.789C343.398 116.978 338.457 121.918 331.943 125.61C325.428 129.193 317.827 130.985 309.141 130.985ZM388.169 131.636C381.111 131.636 374.814 129.845 369.276 126.261C363.739 122.678 359.396 117.684 356.247 111.278C353.098 104.871 351.524 97.651 351.524 89.6162C351.524 81.4728 353.098 74.2523 356.247 67.9548C359.504 61.5486 363.902 56.554 369.439 52.9709C375.085 49.3878 381.437 47.5963 388.495 47.5963C395.444 47.5963 401.47 49.1707 406.573 52.3195C411.676 55.4682 415.639 60.1914 418.462 66.489C421.285 72.6779 422.697 80.387 422.697 89.6162C422.697 98.3025 421.231 105.794 418.299 112.092C415.368 118.389 411.296 123.221 406.084 126.587C400.981 129.953 395.009 131.636 388.169 131.636ZM393.381 106.229C397.724 106.229 401.361 104.709 404.293 101.668C407.224 98.5196 408.69 94.5022 408.69 89.6162C408.69 84.8387 407.224 80.8756 404.293 77.7268C401.361 74.4695 397.724 72.8408 393.381 72.8408C389.146 72.8408 385.563 74.4695 382.631 77.7268C379.808 80.8756 378.397 84.8387 378.397 89.6162C378.397 94.5022 379.808 98.5196 382.631 101.668C385.563 104.709 389.146 106.229 393.381 106.229ZM414.065 129.519L407.387 107.695H408.853V73.3294H407.387V18.6058H433.772V129.519H414.065ZM472.744 131.636C466.881 131.636 462.049 130.767 458.249 129.03C454.558 127.293 451.68 124.959 449.617 122.027C447.554 118.987 446.088 115.512 445.22 111.603C444.46 107.586 444.08 103.297 444.08 98.7368V49.7136H470.464V95.8052C470.464 99.8226 471.224 102.537 472.744 103.949C474.373 105.251 476.436 105.903 478.933 105.903C480.888 105.903 482.788 105.577 484.634 104.926C486.588 104.274 488.488 103.297 490.334 101.994C492.289 100.691 494.189 99.0082 496.035 96.9452L501.572 109.975H493.429V49.7136H519.976V129.519H500.432L495.057 113.069L504.667 114.209C502.061 117.141 499.075 119.964 495.709 122.678C492.343 125.284 488.705 127.456 484.797 129.193C480.996 130.822 476.979 131.636 472.744 131.636ZM556.408 130.333C552.064 130.333 547.993 129.519 544.192 127.89C540.392 126.153 537.298 123.384 534.909 119.584C532.629 115.784 531.489 110.735 531.489 104.437V18.6058H557.71V95.1537C557.71 99.2797 558.362 101.94 559.665 103.134C561.076 104.22 562.977 104.763 565.365 104.763V129.682C564.388 129.899 562.977 130.062 561.131 130.17C559.393 130.279 557.819 130.333 556.408 130.333ZM608.252 130.985C600.217 130.985 593.159 129.302 587.079 125.936C581.107 122.57 576.438 117.792 573.072 111.603C569.706 105.414 568.023 98.0853 568.023 89.6162C568.023 81.4728 569.706 74.2523 573.072 67.9548C576.438 61.6572 581.107 56.7169 587.079 53.1338C593.159 49.4421 600.217 47.5963 608.252 47.5963C616.612 47.5963 623.778 49.4964 629.75 53.2967C635.722 57.0969 640.337 62.1458 643.594 68.4434C646.851 74.6323 648.48 81.5814 648.48 89.2905C648.48 91.0277 648.426 92.6021 648.317 94.0136C648.209 95.4251 648.046 96.5652 647.829 97.4338H587.73V79.5184H627.47L625.19 85.3816C625.19 80.2784 623.833 76.0982 621.118 72.8408C618.404 69.5834 614.224 67.9548 608.577 67.9548C603.366 67.9548 599.24 69.4749 596.199 72.5151C593.159 75.5553 591.639 79.627 591.639 84.7302V93.6879C591.639 99.2254 593.268 103.514 596.525 106.554C599.783 109.486 604.343 110.952 610.206 110.952C614.875 110.952 618.567 110.083 621.281 108.346C624.104 106.5 626.439 104.166 628.284 101.343L645.874 110.789C642.508 116.978 637.568 121.918 631.053 125.61C624.538 129.193 616.938 130.985 608.252 130.985Z" fill="#36EBC5"/>
<path d="M42.0609 129.356L36.8271 144.476L42.0609 129.356ZM26.9141 120.724L16.3781 132.765C16.4271 132.808 16.4764 132.851 16.526 132.893L26.9141 120.724ZM16.002 106.392L7.35542 92.9292C0.439556 97.3711 -1.98565 106.331 1.74537 113.654L16.002 106.392ZM36.0347 93.525L49.4427 84.7942C44.6422 77.422 34.7903 75.3084 27.3882 80.0626L36.0347 93.525ZM47.2726 104.437L39.1898 118.245C39.3213 118.322 39.4539 118.397 39.5876 118.471L47.2726 104.437ZM71.7028 105.577L81.6979 118.071L81.6979 118.071L71.7028 105.577ZM73.4943 94.0136L86.6494 84.9063L86.6494 84.9062L73.4943 94.0136ZM67.9568 90.1048L61.0331 104.529C61.1919 104.605 61.3519 104.679 61.513 104.75L67.9568 90.1048ZM56.3932 86.5217L52.769 102.106C52.844 102.123 52.9191 102.14 52.9944 102.157L56.3932 86.5217ZM34.2432 78.3783L26.0113 92.0982L26.0113 92.0982L34.2432 78.3783ZM22.6796 66.6518L8.30251 73.6732C8.32438 73.718 8.34646 73.7627 8.36875 73.8073L22.6796 66.6518ZM24.1454 33.2639L10.6241 24.7097C10.6085 24.7344 10.5929 24.7591 10.5774 24.7839L24.1454 33.2639ZM38.4778 20.7231L45.5322 35.084C45.5659 35.0674 45.5996 35.0507 45.6332 35.0339L38.4778 20.7231ZM85.2208 21.7003L93.0863 7.76712L93.0863 7.76711L85.2208 21.7003ZM101.019 36.5213L110.329 49.5339C117.2 44.6177 119.065 35.206 114.587 28.0413L101.019 36.5213ZM80.9863 50.8537L68.2328 60.5154C73.466 67.4233 83.2478 68.9089 90.2961 63.8662L80.9863 50.8537ZM70.7256 43.1989L65.0633 58.1634C65.1069 58.1799 65.1506 58.1962 65.1943 58.2123L70.7256 43.1989ZM49.227 43.1989L40.637 29.7003C40.5413 29.7612 40.4462 29.8231 40.3518 29.8861L49.227 43.1989ZM49.3899 56.2283L39.9792 69.1681C40.1987 69.3277 40.4223 69.4818 40.6496 69.6301L49.3899 56.2283ZM63.8851 61.1143L67.5911 45.5494C67.5378 45.5367 67.4845 45.5243 67.4311 45.5122L63.8851 61.1143ZM86.0352 69.0948L93.8283 55.121L93.8283 55.121L86.0352 69.0948ZM98.4131 80.8213L84.4419 88.6192C84.5143 88.7488 84.5885 88.8775 84.6644 89.0051L98.4131 80.8213ZM97.273 115.512L83.9602 106.637C83.9172 106.702 83.8745 106.767 83.8324 106.832L97.273 115.512ZM82.7778 127.89L89.6272 142.35C89.6628 142.333 89.6983 142.316 89.7338 142.299L82.7778 127.89ZM60.4649 132.288V116.288C55.431 116.288 51.0849 115.548 47.2946 114.236L42.0609 129.356L36.8271 144.476C44.329 147.073 52.2523 148.288 60.4649 148.288V132.288ZM42.0609 129.356L47.2946 114.236C43.4957 112.921 40.2032 111.031 37.3023 108.555L26.9141 120.724L16.526 132.893C22.5285 138.017 29.3338 141.882 36.8271 144.476L42.0609 129.356ZM26.9141 120.724L37.4502 108.683C34.8123 106.375 32.3754 103.284 30.2586 99.1288L16.002 106.392L1.74537 113.654C5.49186 121.009 10.3297 127.473 16.3781 132.765L26.9141 120.724ZM16.002 106.392L24.6486 119.854L44.6813 106.987L36.0347 93.525L27.3882 80.0626L7.35542 92.9292L16.002 106.392ZM36.0347 93.525L22.6268 102.256C26.9126 108.838 32.4239 114.285 39.1898 118.245L47.2726 104.437L55.3555 90.6289C53.2179 89.3777 51.2373 87.5502 49.4427 84.7942L36.0347 93.525ZM47.2726 104.437L39.5876 118.471C46.5098 122.261 54.0396 124.183 61.9307 124.183V108.183V92.1831C59.3983 92.1831 57.1561 91.6075 54.9577 90.4036L47.2726 104.437ZM61.9307 108.183V124.183C67.9833 124.183 75.4836 123.043 81.6979 118.071L71.7028 105.577L61.7077 93.0833C62.6794 92.306 63.4401 92.0901 63.5085 92.0719C63.5439 92.0625 63.4412 92.0925 63.1678 92.1237C62.8951 92.1549 62.4891 92.1831 61.9307 92.1831V108.183ZM71.7028 105.577L81.6979 118.071C87.7314 113.244 90.9602 106.335 90.9602 98.7368H74.9601H58.9601C58.9601 98.0508 59.1048 96.9353 59.7 95.6852C60.2987 94.428 61.0981 93.571 61.7077 93.0833L71.7028 105.577ZM74.9601 98.7368H90.9602C90.9602 93.7866 89.5026 89.0275 86.6494 84.9063L73.4943 94.0136L60.3393 103.121C59.94 102.544 59.5706 101.826 59.3127 100.995C59.0553 100.166 58.9601 99.3892 58.9601 98.7368H74.9601ZM73.4943 94.0136L86.6494 84.9062C83.1677 79.8771 78.093 77.0844 74.4007 75.4597L67.9568 90.1048L61.513 104.75C62.1767 105.042 62.3217 105.17 62.1501 105.049C61.9984 104.942 61.1954 104.358 60.3393 103.121L73.4943 94.0136ZM67.9568 90.1048L74.8805 75.6804C70.5312 73.5928 65.2864 72.0813 59.7921 70.8869L56.3932 86.5217L52.9944 102.157C57.4893 103.134 59.9535 104.011 61.0331 104.529L67.9568 90.1048ZM56.3932 86.5217L60.0174 70.9376C51.5581 68.9703 45.9403 66.7375 42.4751 64.6584L34.2432 78.3783L26.0113 92.0982C33.404 96.5338 42.5529 99.73 52.769 102.106L56.3932 86.5217ZM34.2432 78.3783L42.4751 64.6584C39.0252 62.5885 37.6146 60.7449 36.9904 59.4964L22.6796 66.6518L8.36875 73.8073C12.3048 81.6794 18.6033 87.6534 26.0113 92.0982L34.2432 78.3783ZM22.6796 66.6518L37.0567 59.6305C35.9743 57.4143 35.2594 54.598 35.2594 50.8537H19.2594H3.25936C3.25936 58.8357 4.82453 66.5516 8.30251 73.6732L22.6796 66.6518ZM19.2594 50.8537H35.2594C35.2594 47.1496 36.1421 44.2579 37.7134 41.7439L24.1454 33.2639L10.5774 24.7839C5.63393 32.6935 3.25936 41.5283 3.25936 50.8537H19.2594ZM24.1454 33.2639L37.6667 41.8182C39.3055 39.2278 41.7323 36.9506 45.5322 35.084L38.4778 20.7231L31.4233 6.36224C22.8453 10.576 15.7172 16.6593 10.6241 24.7097L24.1454 33.2639ZM38.4778 20.7231L45.6332 35.0339C49.3026 33.1992 54.1443 31.9999 60.6278 31.9999V15.9999V-6.10352e-05C50.1731 -6.10352e-05 40.2481 1.94941 31.3223 6.41227L38.4778 20.7231ZM60.6278 15.9999V31.9999C68.2148 31.9999 73.5531 33.4871 77.3553 35.6335L85.2208 21.7003L93.0863 7.76711C83.4249 2.31306 72.3677 -6.10352e-05 60.6278 -6.10352e-05V15.9999ZM85.2208 21.7003L77.3553 35.6335C81.9477 38.226 85.1761 41.3613 87.451 45.0013L101.019 36.5213L114.587 28.0413C109.261 19.5205 101.958 12.7751 93.0863 7.76712L85.2208 21.7003ZM101.019 36.5213L91.7092 23.5087L71.6764 37.8411L80.9863 50.8537L90.2961 63.8662L110.329 49.5339L101.019 36.5213ZM80.9863 50.8537L93.7397 41.1919C89.2223 35.229 83.3192 30.7873 76.2569 28.1854L70.7256 43.1989L65.1943 58.2123C66.384 58.6507 67.3213 59.3122 68.2328 60.5154L80.9863 50.8537ZM70.7256 43.1989L76.3879 28.2343C70.74 26.0973 64.862 24.9187 58.8362 24.9187V40.9187V56.9187C60.6281 56.9187 62.6763 57.2603 65.0633 58.1634L70.7256 43.1989ZM58.8362 40.9187V24.9187C52.9918 24.9187 46.4554 25.9977 40.637 29.7003L49.227 43.1989L57.817 56.6974C57.2836 57.0369 56.9726 57.0902 57.1149 57.0565C57.2755 57.0184 57.8097 56.9187 58.8362 56.9187V40.9187ZM49.227 43.1989L40.3518 29.8861C33.4616 34.4795 29.8068 41.7347 29.8068 49.7136H45.8068H61.8068C61.8068 50.4995 61.6331 51.8718 60.8282 53.405C60.0133 54.9572 58.9237 55.964 58.1022 56.5117L49.227 43.1989ZM45.8068 49.7136H29.8068C29.8068 58.1768 34.0862 64.8823 39.9792 69.1681L49.3899 56.2283L58.8007 43.2885C59.1479 43.541 59.9893 44.2536 60.722 45.586C61.4917 46.9853 61.8068 48.4642 61.8068 49.7136H45.8068ZM49.3899 56.2283L40.6496 69.6301C45.8157 72.9992 53.2573 75.1069 60.3392 76.7164L63.8851 61.1143L67.4311 45.5122C64.1679 44.7706 61.7302 44.0936 59.9974 43.5095C58.0938 42.8678 57.7272 42.5637 58.1302 42.8265L49.3899 56.2283ZM63.8851 61.1143L60.1792 76.6792C68.4523 78.649 74.313 80.8775 78.2421 83.0687L86.0352 69.0948L93.8283 55.121C86.4651 51.0146 77.5592 47.9228 67.5911 45.5494L63.8851 61.1143ZM86.0352 69.0948L78.2421 83.0687C81.8403 85.0754 83.5591 87.0374 84.4419 88.6192L98.4131 80.8213L112.384 73.0235C108.055 65.2675 101.522 59.4118 93.8283 55.121L86.0352 69.0948ZM98.4131 80.8213L84.6644 89.0051C85.581 90.5449 86.4848 93.146 86.4848 97.5967H102.485H118.485C118.485 88.8008 116.674 80.2183 112.162 72.6376L98.4131 80.8213ZM102.485 97.5967H86.4848C86.4848 101.417 85.5502 104.252 83.9602 106.637L97.273 115.512L110.586 124.387C115.945 116.349 118.485 107.24 118.485 97.5967H102.485ZM97.273 115.512L83.8324 106.832C82.2566 109.272 79.8177 111.552 75.8218 113.481L82.7778 127.89L89.7338 142.299C98.333 138.148 105.558 132.176 110.714 124.193L97.273 115.512ZM82.7778 127.89L75.9284 113.43C72.3749 115.114 67.3982 116.288 60.4649 116.288V132.288V148.288C70.9042 148.288 80.8028 146.53 89.6272 142.35L82.7778 127.89ZM123.871 126.261L115.748 140.046C115.784 140.067 115.819 140.088 115.855 140.108L123.871 126.261ZM123.871 53.1338L131.994 66.9184C132.019 66.904 132.043 66.8895 132.068 66.8749L123.871 53.1338ZM169.149 54.2739L160.223 67.5531V67.5531L169.149 54.2739ZM183.318 72.1893L189.947 86.7518C197.612 83.2627 201.26 74.4287 198.29 66.5476L183.318 72.1893ZM159.702 82.9386L145.19 89.6764C148.892 97.6486 158.331 101.142 166.331 97.501L159.702 82.9386ZM154.328 75.9353L144.333 88.4292C144.463 88.5333 144.594 88.6353 144.728 88.7353L154.328 75.9353ZM134.946 77.7268L123.633 66.4131C123.562 66.4843 123.491 66.5561 123.421 66.6286L134.946 77.7268ZM134.946 101.506L123.421 112.604C123.561 112.749 123.703 112.891 123.848 113.031L134.946 101.506ZM154.328 103.297L144.728 90.4971L144.728 90.4971L154.328 103.297ZM159.702 96.4566L166.163 81.819C158.267 78.334 149.03 81.7393 145.286 89.5156L159.702 96.4566ZM183.318 106.88L198.29 112.522C201.285 104.574 197.549 95.672 189.779 92.2426L183.318 106.88ZM168.986 124.958L177.911 138.238C177.927 138.227 177.943 138.216 177.959 138.205L168.986 124.958ZM145.37 131.636V115.636C139.644 115.636 135.319 114.401 131.888 112.415L123.871 126.261L115.855 140.108C124.802 145.288 134.809 147.636 145.37 147.636V131.636ZM123.871 126.261L131.994 112.477C128.501 110.418 125.74 107.589 123.604 103.649L109.539 111.278L95.4745 118.906C100.287 127.778 107.081 134.939 115.748 140.046L123.871 126.261ZM109.539 111.278L123.604 103.649C121.543 99.8498 120.327 95.2507 120.327 89.4533H104.327H88.3273C88.3273 99.9427 90.5863 109.893 95.4745 118.906L109.539 111.278ZM104.327 89.4533H120.327C120.327 83.7992 121.527 79.3475 123.548 75.684L109.539 67.9548L95.5298 60.2255C90.602 69.1572 88.3273 79.0378 88.3273 89.4533H104.327ZM109.539 67.9548L123.548 75.684C125.666 71.8452 128.432 69.0177 131.994 66.9184L123.871 53.1338L115.748 39.3492C107.15 44.4161 100.361 51.4692 95.5298 60.2255L109.539 67.9548ZM123.871 53.1338L132.068 66.8749C135.468 64.8465 139.729 63.5963 145.37 63.5963V47.5963V31.5963C134.724 31.5963 124.652 34.0378 115.675 39.3927L123.871 53.1338ZM145.37 47.5963V63.5963C151.931 63.5963 156.633 65.1401 160.223 67.5531L169.149 54.2739L178.074 40.9947C168.417 34.5042 157.267 31.5963 145.37 31.5963V47.5963ZM169.149 54.2739L160.223 67.5531C164.076 70.143 166.691 73.4408 168.346 77.8311L183.318 72.1893L198.29 66.5476C194.299 55.954 187.467 47.3082 178.074 40.9947L169.149 54.2739ZM183.318 72.1893L176.69 57.6269L153.074 68.3762L159.702 82.9386L166.331 97.501L189.947 86.7518L183.318 72.1893ZM159.702 82.9386L174.214 76.2008C171.948 71.3201 168.652 66.6786 163.928 63.1353L154.328 75.9353L144.728 88.7353C144.346 88.4493 144.633 88.4767 145.19 89.6764L159.702 82.9386ZM154.328 75.9353L164.323 63.4414C158.584 58.85 151.85 57.3294 145.696 57.3294V73.3294V89.3294C146.212 89.3294 146.233 89.3936 145.917 89.2981C145.56 89.1905 144.965 88.9354 144.333 88.4292L154.328 75.9353ZM145.696 73.3294V57.3294C137.319 57.3294 129.636 60.4098 123.633 66.4131L134.946 77.7268L146.26 89.0405C146.309 88.9915 146.297 89.0115 146.219 89.0645C146.138 89.119 146.025 89.1825 145.891 89.2375C145.757 89.2923 145.649 89.3192 145.591 89.3302C145.535 89.3406 145.563 89.3294 145.696 89.3294V73.3294ZM134.946 77.7268L123.421 66.6286C117.168 73.1223 114.712 81.3114 114.712 89.4533H130.712H146.712C146.712 88.5447 146.843 88.2269 146.819 88.2915C146.808 88.3229 146.772 88.4117 146.698 88.5305C146.624 88.65 146.542 88.7516 146.472 88.8251L134.946 77.7268ZM130.712 89.4533H114.712C114.712 97.5931 117.044 105.981 123.421 112.604L134.946 101.506L146.472 90.4073C146.577 90.5173 146.677 90.6461 146.757 90.7773C146.795 90.8394 146.822 90.8921 146.841 90.9316C146.859 90.9708 146.866 90.9918 146.866 90.99C146.864 90.9856 146.712 90.5468 146.712 89.4533H130.712ZM134.946 101.506L123.848 113.031C129.892 118.851 137.508 121.74 145.696 121.74V105.74V89.7401C145.528 89.7401 145.464 89.7263 145.485 89.73C145.508 89.7342 145.586 89.7512 145.697 89.7949C145.809 89.839 145.909 89.8925 145.987 89.9431C146.063 89.9925 146.081 90.0155 146.045 89.9804L134.946 101.506ZM145.696 105.74V121.74C151.637 121.74 158.217 120.38 163.928 116.097L154.328 103.297L144.728 90.4971C145.367 90.0172 145.923 89.808 146.184 89.734C146.41 89.6699 146.296 89.7401 145.696 89.7401V105.74ZM154.328 103.297L163.928 116.097C168.521 112.652 171.814 108.184 174.118 103.398L159.702 96.4566L145.286 89.5156C145.024 90.0612 144.817 90.355 144.719 90.4803C144.627 90.5975 144.623 90.5752 144.728 90.4971L154.328 103.297ZM159.702 96.4566L153.242 111.094L176.857 121.518L183.318 106.88L189.779 92.2426L166.163 81.819L159.702 96.4566ZM183.318 106.88L168.346 101.238C166.708 105.585 164.053 108.975 160.012 111.712L168.986 124.958L177.959 138.205C187.383 131.822 194.282 123.159 198.29 112.522L183.318 106.88ZM168.986 124.958L160.06 111.679C156.439 114.113 151.78 115.636 145.37 115.636V131.636V147.636C157.202 147.636 168.286 144.707 177.911 138.238L168.986 124.958ZM188.162 129.519H172.162C172.162 138.355 179.326 145.519 188.162 145.519V129.519ZM188.162 18.6058V2.60582C179.326 2.60582 172.162 9.76926 172.162 18.6058H188.162ZM214.547 18.6058H230.547C230.547 9.76926 223.383 2.60582 214.547 2.60582V18.6058ZM214.547 129.519V145.519C223.383 145.519 230.547 138.355 230.547 129.519H214.547ZM237.674 129.519H221.674C221.674 138.355 228.837 145.519 237.674 145.519V129.519ZM235.72 75.4467L224.406 86.7604L224.406 86.7604L235.72 75.4467ZM224.156 74.6323L228.974 89.8897C229.214 89.814 229.451 89.7327 229.687 89.6458L224.156 74.6323ZM217.967 77.7268L226.842 91.0396C226.896 91.004 226.949 90.968 227.002 90.9317L217.967 77.7268ZM212.104 82.45L197.847 89.7128C200.136 94.2049 204.407 97.3557 209.375 98.2156C214.342 99.0754 219.425 97.5438 223.09 94.0822L212.104 82.45ZM203.309 65.186L191.374 54.5298C186.979 59.4524 186.057 66.5686 189.052 72.4488L203.309 65.186ZM212.755 56.7169L222.166 69.6567C222.189 69.6403 222.211 69.6238 222.233 69.6073L212.755 56.7169ZM224.645 50.2022L230.388 65.1357C230.455 65.1102 230.521 65.0842 230.587 65.0578L224.645 50.2022ZM251.355 50.365L259.048 36.3361V36.336L251.355 50.365ZM259.173 57.857L245.369 65.9485C245.411 66.0195 245.453 66.0902 245.496 66.1606L259.173 57.857ZM262.919 68.2805L247.136 70.9109C247.16 71.0524 247.185 71.1936 247.213 71.3344L262.919 68.2805ZM264.059 129.519V145.519C272.895 145.519 280.059 138.355 280.059 129.519H264.059ZM188.162 129.519H204.162V18.6058H188.162H172.162V129.519H188.162ZM188.162 18.6058V34.6058H214.547V18.6058V2.60582H188.162V18.6058ZM214.547 18.6058H198.547V129.519H214.547H230.547V18.6058H214.547ZM214.547 129.519V113.519H188.162V129.519V145.519H214.547V129.519ZM237.674 129.519H253.674V83.5901H237.674H221.674V129.519H237.674ZM237.674 83.5901H253.674C253.674 80.8069 253.466 77.7367 252.744 74.7258C252.058 71.8688 250.583 67.6825 247.033 64.133L235.72 75.4467L224.406 86.7604C223.24 85.5943 222.561 84.4564 222.187 83.688C221.817 82.9268 221.671 82.3763 221.627 82.1937C221.556 81.8973 221.674 82.2473 221.674 83.5901H237.674ZM235.72 75.4467L247.033 64.133C241.788 58.888 235.211 57.4923 230.019 57.4923V73.4923V89.4923C229.822 89.4923 227.045 89.3995 224.406 86.7604L235.72 75.4467ZM230.019 73.4923V57.4923C225.964 57.4923 222.129 58.3279 218.625 59.6189L224.156 74.6323L229.687 89.6458C230.309 89.4167 230.383 89.4923 230.019 89.4923V73.4923ZM224.156 74.6323L219.338 59.375C215.564 60.5667 212.095 62.3576 208.932 64.5219L217.967 77.7268L227.002 90.9317C227.965 90.273 228.622 90.001 228.974 89.8897L224.156 74.6323ZM217.967 77.7268L209.092 64.414C206.29 66.2822 203.635 68.44 201.118 70.8178L212.104 82.45L223.09 94.0822C224.481 92.7684 225.736 91.7774 226.842 91.0396L217.967 77.7268ZM212.104 82.45L226.36 75.1872L217.566 57.9232L203.309 65.186L189.052 72.4488L197.847 89.7128L212.104 82.45ZM203.309 65.186L215.244 75.8423C217.138 73.7208 219.424 71.6508 222.166 69.6567L212.755 56.7169L203.344 43.7771C198.92 46.9948 194.909 50.5709 191.374 54.5298L203.309 65.186ZM212.755 56.7169L222.233 69.6073C224.788 67.7287 227.497 66.2476 230.388 65.1357L224.645 50.2022L218.901 35.2686C213.323 37.4141 208.105 40.2762 203.277 43.8265L212.755 56.7169ZM224.645 50.2022L230.587 65.0578C232.999 64.0928 235.539 63.5963 238.325 63.5963V47.5963V31.5963C231.557 31.5963 224.976 32.837 218.702 35.3465L224.645 50.2022ZM238.325 47.5963V63.5963C241.942 63.5963 243.389 64.2443 243.662 64.394L251.355 50.365L259.048 36.336C252.589 32.7941 245.35 31.5963 238.325 31.5963V47.5963ZM251.355 50.365L243.662 64.394C244.629 64.9244 245.063 65.426 245.369 65.9485L259.173 57.857L272.976 49.7654C269.59 43.9903 264.813 39.4974 259.048 36.3361L251.355 50.365ZM259.173 57.857L245.496 66.1606C246.171 67.273 246.781 68.781 247.136 70.9109L262.919 68.2805L278.701 65.6501C277.753 59.9624 275.865 54.5213 272.849 49.5533L259.173 57.857ZM262.919 68.2805L247.213 71.3344C247.765 74.1757 248.059 77.2216 248.059 80.4956H264.059H280.059C280.059 75.3004 279.592 70.2029 278.624 65.2266L262.919 68.2805ZM264.059 80.4956H248.059V129.519H264.059H280.059V80.4956H264.059ZM264.059 129.519V113.519H237.674V129.519V145.519H264.059V129.519ZM287.968 125.936L280.112 139.874C280.148 139.894 280.183 139.914 280.219 139.934L287.968 125.936ZM287.968 53.1338L296.2 66.8537C296.224 66.8393 296.248 66.8249 296.272 66.8104L287.968 53.1338ZM330.64 53.2967L339.23 39.7981V39.7981L330.64 53.2967ZM344.483 68.4434L330.272 75.7941C330.289 75.8279 330.307 75.8616 330.325 75.8953L344.483 68.4434ZM348.718 97.4338V113.434C356.06 113.434 362.46 108.437 364.24 101.314L348.718 97.4338ZM288.62 97.4338H272.62C272.62 106.27 279.783 113.434 288.62 113.434V97.4338ZM288.62 79.5184V63.5184C279.783 63.5184 272.62 70.6818 272.62 79.5184H288.62ZM328.36 79.5184L343.272 85.3175C345.186 80.3947 344.548 74.8443 341.565 70.4847C338.583 66.1252 333.642 63.5184 328.36 63.5184V79.5184ZM326.079 85.3816H310.079C310.079 93.0805 315.562 99.6877 323.129 101.107C330.696 102.527 338.201 98.3561 340.991 91.1808L326.079 85.3816ZM322.008 72.8408L334.299 62.5979V62.5978L322.008 72.8408ZM297.089 72.5151L285.775 61.2014V61.2014L297.089 72.5151ZM297.415 106.554L286.498 118.251C286.568 118.317 286.639 118.383 286.711 118.447L297.415 106.554ZM322.171 108.346L330.795 121.822C330.839 121.794 330.883 121.766 330.927 121.738L322.171 108.346ZM329.174 101.343L336.744 87.2468C329.43 83.3187 320.326 85.6378 315.782 92.5867L329.174 101.343ZM346.764 110.789L360.819 118.433C362.854 114.693 363.313 110.295 362.096 106.215C360.879 102.135 358.085 98.7077 354.334 96.6931L346.764 110.789ZM331.943 125.61L339.653 139.629C339.713 139.597 339.772 139.564 339.831 139.53L331.943 125.61ZM309.141 130.985V114.985C303.39 114.985 299.079 113.798 295.717 111.937L287.968 125.936L280.219 139.934C289.019 144.805 298.822 146.985 309.141 146.985V130.985ZM287.968 125.936L295.825 111.997C292.544 110.148 289.99 107.587 288.017 103.959L273.962 111.603L259.906 119.248C264.665 127.998 271.449 134.991 280.112 139.874L287.968 125.936ZM273.962 111.603L288.017 103.959C286.162 100.547 284.913 95.9522 284.913 89.6162H268.913H252.913C252.913 100.218 255.03 110.282 259.906 119.248L273.962 111.603ZM268.913 89.6162H284.913C284.913 83.7307 286.112 79.1657 288.073 75.4968L273.962 67.9548L259.851 60.4127C255.08 69.339 252.913 79.2149 252.913 89.6162H268.913ZM273.962 67.9548L288.073 75.4968C290.11 71.6846 292.776 68.9082 296.2 66.8537L287.968 53.1338L279.736 39.4139C271.217 44.5256 264.545 51.6299 259.851 60.4127L273.962 67.9548ZM287.968 53.1338L296.272 66.8104C299.537 64.8282 303.646 63.5963 309.141 63.5963V47.5963V31.5963C298.566 31.5963 288.561 34.0561 279.665 39.4572L287.968 53.1338ZM309.141 47.5963V63.5963C315.018 63.5963 319.079 64.9051 322.05 66.7952L330.64 53.2967L339.23 39.7981C330.256 34.0877 319.985 31.5963 309.141 31.5963V47.5963ZM330.64 53.2967L322.05 66.7952C325.634 69.0759 328.31 72.0019 330.272 75.7941L344.483 68.4434L358.695 61.0926C354.142 52.2897 347.589 45.1179 339.23 39.7981L330.64 53.2967ZM344.483 68.4434L330.325 75.8953C332.253 79.5585 333.37 83.9074 333.37 89.2905H349.37H365.37C365.37 79.2553 363.229 69.7062 358.642 60.9914L344.483 68.4434ZM349.37 89.2905H333.37C333.37 90.7061 333.325 91.8624 333.254 92.7865L349.207 94.0136L365.16 95.2407C365.306 93.3418 365.37 91.3493 365.37 89.2905H349.37ZM349.207 94.0136L333.254 92.7865C333.22 93.2209 333.187 93.5056 333.164 93.6646C333.139 93.8353 333.14 93.7778 333.196 93.5532L348.718 97.4338L364.24 101.314C364.763 99.2252 365.017 97.0966 365.16 95.2407L349.207 94.0136ZM348.718 97.4338V81.4338H288.62V97.4338V113.434H348.718V97.4338ZM288.62 97.4338H304.62V79.5184H288.62H272.62V97.4338H288.62ZM288.62 79.5184V95.5184H328.36V79.5184V63.5184H288.62V79.5184ZM328.36 79.5184L313.447 73.7192L311.167 79.5825L326.079 85.3816L340.991 91.1808L343.272 85.3175L328.36 79.5184ZM326.079 85.3816H342.079C342.079 77.3288 339.873 69.2863 334.299 62.5979L322.008 72.8408L309.716 83.0837C309.722 83.0903 309.771 83.1352 309.843 83.3599C309.928 83.6209 310.079 84.2435 310.079 85.3816H326.079ZM322.008 72.8408L334.299 62.5978C327.614 54.5753 318.185 51.9548 309.467 51.9548V67.9548V83.9548C310.796 83.9548 311.2 84.1515 311.028 84.0847C310.929 84.0462 310.715 83.9484 310.446 83.7575C310.173 83.564 309.922 83.3305 309.716 83.0838L322.008 72.8408ZM309.467 67.9548V51.9548C300.972 51.9548 292.433 54.5435 285.775 61.2014L297.089 72.5151L308.403 83.8288C308.347 83.884 308.264 83.9541 308.163 84.0185C308.115 84.0486 308.074 84.0713 308.042 84.0872C308.01 84.103 307.993 84.1092 307.995 84.1083C307.997 84.1074 308.099 84.0699 308.332 84.0319C308.569 83.9934 308.939 83.9548 309.467 83.9548V67.9548ZM297.089 72.5151L285.775 61.2014C279.181 67.7952 276.529 76.2354 276.529 84.7301H292.529H308.529C308.529 83.7632 308.672 83.4088 308.658 83.4451C308.652 83.461 308.624 83.5303 308.563 83.6251C308.502 83.7205 308.44 83.7909 308.403 83.8288L297.089 72.5151ZM292.529 84.7301H276.529V93.6879H292.529H308.529V84.7301H292.529ZM292.529 93.6879H276.529C276.529 102.508 279.242 111.48 286.498 118.251L297.415 106.554L308.332 94.8576C308.412 94.9323 308.506 95.039 308.59 95.165C308.629 95.2239 308.659 95.2758 308.679 95.3162C308.7 95.3564 308.708 95.3786 308.708 95.3775C308.708 95.3769 308.663 95.261 308.619 94.9906C308.573 94.7167 308.529 94.2916 308.529 93.6879H292.529ZM297.415 106.554L286.711 118.447C293.779 124.808 302.637 126.952 311.096 126.952V110.952V94.9519C309.468 94.9519 308.564 94.7453 308.174 94.6201C307.842 94.5132 307.917 94.4812 308.118 94.6617L297.415 106.554ZM311.096 110.952V126.952C317.522 126.952 324.596 125.79 330.795 121.822L322.171 108.346L313.546 94.8696C313.954 94.6084 314.091 94.634 313.701 94.7257C313.295 94.8214 312.468 94.9519 311.096 94.9519V110.952ZM322.171 108.346L330.927 121.738C335.598 118.683 339.511 114.77 342.565 110.099L329.174 101.343L315.782 92.5867C315.145 93.5612 314.389 94.3173 313.415 94.9545L322.171 108.346ZM329.174 101.343L321.604 115.439L339.194 124.885L346.764 110.789L354.334 96.6931L336.744 87.2468L329.174 101.343ZM346.764 110.789L332.708 103.145C330.862 106.539 328.138 109.376 324.054 111.69L331.943 125.61L339.831 139.53C348.777 134.461 355.934 127.417 360.819 118.433L346.764 110.789ZM331.943 125.61L324.232 111.591C320.449 113.671 315.587 114.985 309.141 114.985V130.985V146.985C320.067 146.985 330.407 144.715 339.653 139.629L331.943 125.61ZM356.247 111.278L341.888 118.336V118.336L356.247 111.278ZM356.247 67.9548L341.985 60.7028C341.968 60.7349 341.952 60.7671 341.936 60.7993L356.247 67.9548ZM369.439 52.9709L360.866 39.4617C360.826 39.4869 360.787 39.5123 360.747 39.5378L369.439 52.9709ZM406.573 52.3195L414.975 38.7029L414.975 38.7029L406.573 52.3195ZM418.462 66.489L403.862 73.0339C403.876 73.0656 403.891 73.0974 403.905 73.129L418.462 66.489ZM418.299 112.092L403.794 105.339V105.339L418.299 112.092ZM406.084 126.587L397.404 113.147C397.361 113.174 397.318 113.203 397.275 113.231L406.084 126.587ZM404.293 101.668L415.81 112.775C415.875 112.707 415.939 112.639 416.003 112.571L404.293 101.668ZM404.293 77.7268L392.4 88.4303C392.46 88.4972 392.521 88.5636 392.583 88.6295L404.293 77.7268ZM382.631 77.7268L370.739 67.0234C370.732 67.031 370.725 67.0385 370.718 67.0461L382.631 77.7268ZM382.631 101.668L370.718 112.349C370.848 112.493 370.979 112.635 371.114 112.775L382.631 101.668ZM414.065 129.519L398.765 134.2C400.823 140.926 407.032 145.519 414.065 145.519V129.519ZM407.387 107.695V91.6945C402.314 91.6945 397.542 94.1004 394.525 98.1788C391.507 102.257 390.603 107.525 392.087 112.376L407.387 107.695ZM408.853 107.695V123.695C417.69 123.695 424.853 116.531 424.853 107.695H408.853ZM408.853 73.3294H424.853C424.853 64.4929 417.69 57.3294 408.853 57.3294V73.3294ZM407.387 73.3294H391.387C391.387 82.166 398.551 89.3294 407.387 89.3294V73.3294ZM407.387 18.6058V2.60582C398.551 2.60582 391.387 9.76926 391.387 18.6058H407.387ZM433.772 18.6058H449.772C449.772 9.76926 442.608 2.60582 433.772 2.60582V18.6058ZM433.772 129.519V145.519C442.608 145.519 449.772 138.355 449.772 129.519H433.772ZM388.169 131.636V115.636C383.97 115.636 380.733 114.617 377.968 112.828L369.276 126.261L360.584 139.695C368.895 145.072 378.253 147.636 388.169 147.636V131.636ZM369.276 126.261L377.968 112.828C375.061 110.947 372.586 108.248 370.606 104.22L356.247 111.278L341.888 118.336C346.205 127.119 352.417 134.41 360.584 139.695L369.276 126.261ZM356.247 111.278L370.606 104.22C368.666 100.272 367.524 95.5136 367.524 89.6162H351.524H335.524C335.524 99.7884 337.531 109.471 341.888 118.336L356.247 111.278ZM351.524 89.6162H367.524C367.524 83.5674 368.682 78.8622 370.558 75.1102L356.247 67.9548L341.936 60.7993C337.514 69.6424 335.524 79.3782 335.524 89.6162H351.524ZM356.247 67.9548L370.509 75.2067C372.605 71.0839 375.173 68.3184 378.131 66.4041L369.439 52.9709L360.747 39.5378C352.631 44.7896 346.403 52.0134 341.985 60.7028L356.247 67.9548ZM369.439 52.9709L378.012 66.4802C380.95 64.6159 384.297 63.5963 388.495 63.5963V47.5963V31.5963C378.577 31.5963 369.22 34.1597 360.866 39.4617L369.439 52.9709ZM388.495 47.5963V63.5963C392.956 63.5963 395.973 64.5795 398.171 65.936L406.573 52.3195L414.975 38.7029C406.967 33.7618 397.931 31.5963 388.495 31.5963V47.5963ZM406.573 52.3195L398.171 65.936C400.151 67.1578 402.147 69.2066 403.862 73.0339L418.462 66.489L433.062 59.9441C429.132 51.1762 423.201 43.7787 414.975 38.7029L406.573 52.3195ZM418.462 66.489L403.905 73.129C405.502 76.6299 406.697 81.9061 406.697 89.6162H422.697H438.697C438.697 78.8679 437.069 68.726 433.019 59.8489L418.462 66.489ZM422.697 89.6162H406.697C406.697 96.5376 405.527 101.618 403.794 105.339L418.299 112.092L432.805 118.844C436.935 109.971 438.697 100.067 438.697 89.6162H422.697ZM418.299 112.092L403.794 105.339C401.978 109.24 399.788 111.607 397.404 113.147L406.084 126.587L414.765 140.028C422.805 134.835 428.757 127.539 432.805 118.844L418.299 112.092ZM406.084 126.587L397.275 113.231C395.091 114.672 392.263 115.636 388.169 115.636V131.636V147.636C397.756 147.636 406.872 145.235 414.894 139.944L406.084 126.587ZM393.381 106.229V122.229C401.93 122.229 409.768 119.04 415.81 112.775L404.293 101.668L392.775 90.5622C392.731 90.6086 392.749 90.5816 392.838 90.5202C392.928 90.4571 393.052 90.3864 393.197 90.3259C393.341 90.2658 393.454 90.2373 393.512 90.2263C393.567 90.2159 393.531 90.2287 393.381 90.2287V106.229ZM404.293 101.668L416.003 112.571C422.07 106.055 424.69 97.957 424.69 89.6162H408.69H392.69C392.69 90.4517 392.567 90.7895 392.56 90.8096C392.554 90.8258 392.56 90.8079 392.58 90.7757C392.599 90.7437 392.607 90.7389 392.583 90.7657L404.293 101.668ZM408.69 89.6162H424.69C424.69 81.2772 422.005 73.2705 416.003 66.8241L404.293 77.7268L392.583 88.6295C392.624 88.6736 392.624 88.6815 392.608 88.6556C392.592 88.6291 392.583 88.6084 392.584 88.6111C392.586 88.6157 392.611 88.6817 392.636 88.8321C392.661 88.9853 392.69 89.2402 392.69 89.6162H408.69ZM404.293 77.7268L416.186 67.0234C410.251 60.4294 402.306 56.8408 393.381 56.8408V72.8408V88.8408C393.463 88.8408 393.429 88.848 393.306 88.823C393.18 88.7973 393.012 88.7478 392.827 88.6653C392.643 88.5829 392.502 88.4939 392.413 88.4273C392.327 88.3632 392.326 88.3483 392.4 88.4303L404.293 77.7268ZM393.381 72.8408V56.8408C384.434 56.8408 376.584 60.5283 370.739 67.0234L382.631 77.7268L394.524 88.4303C394.615 88.3294 394.629 88.3319 394.552 88.3892C394.472 88.4491 394.332 88.54 394.138 88.6282C393.943 88.7168 393.752 88.7761 393.59 88.8099C393.431 88.843 393.353 88.8408 393.381 88.8408V72.8408ZM382.631 77.7268L370.718 67.0461C364.919 73.5142 362.397 81.4449 362.397 89.6162H378.397H394.397C394.397 88.8117 394.513 88.4707 394.528 88.4291C394.538 88.402 394.538 88.4072 394.526 88.4267C394.515 88.446 394.514 88.4412 394.545 88.4075L382.631 77.7268ZM378.397 89.6162H362.397C362.397 97.7919 364.858 105.813 370.718 112.349L382.631 101.668L394.545 90.9877C394.53 90.9715 394.539 90.9793 394.554 91.0043C394.568 91.029 394.565 91.031 394.551 90.99C394.525 90.9164 394.397 90.515 394.397 89.6162H378.397ZM382.631 101.668L371.114 112.775C377.07 118.951 384.815 122.229 393.381 122.229V106.229V90.2287C393.283 90.2287 393.291 90.2203 393.381 90.2378C393.474 90.256 393.611 90.2933 393.766 90.3593C393.922 90.4254 394.046 90.4984 394.128 90.5558C394.207 90.6114 394.211 90.627 394.149 90.5622L382.631 101.668ZM414.065 129.519L429.365 124.837L422.687 103.013L407.387 107.695L392.087 112.376L398.765 134.2L414.065 129.519ZM407.387 107.695V123.695H408.853V107.695V91.6945H407.387V107.695ZM408.853 107.695H424.853V73.3294H408.853H392.853V107.695H408.853ZM408.853 73.3294V57.3294H407.387V73.3294V89.3294H408.853V73.3294ZM407.387 73.3294H423.387V18.6058H407.387H391.387V73.3294H407.387ZM407.387 18.6058V34.6058H433.772V18.6058V2.60582H407.387V18.6058ZM433.772 18.6058H417.772V129.519H433.772H449.772V18.6058H433.772ZM433.772 129.519V113.519H414.065V129.519V145.519H433.772V129.519ZM458.249 129.03L451.436 143.507C451.49 143.532 451.543 143.557 451.597 143.582L458.249 129.03ZM449.617 122.027L436.378 131.011C436.428 131.086 436.48 131.161 436.532 131.235L449.617 122.027ZM445.22 111.603L429.499 114.578C429.53 114.744 429.564 114.909 429.601 115.074L445.22 111.603ZM444.08 49.7136V33.7136C435.243 33.7136 428.08 40.877 428.08 49.7136H444.08ZM470.464 49.7136H486.464C486.464 40.877 479.301 33.7136 470.464 33.7136V49.7136ZM472.744 103.949L461.857 115.673C462.145 115.941 462.443 116.197 462.749 116.442L472.744 103.949ZM484.634 104.926L479.574 89.7468C479.485 89.7764 479.397 89.8068 479.309 89.8379L484.634 104.926ZM490.334 101.994L481.459 88.6813C481.341 88.7602 481.223 88.8407 481.107 88.9227L490.334 101.994ZM496.035 96.9452L510.76 90.687C508.618 85.648 504.049 82.054 498.647 81.16C493.245 80.266 487.761 82.1962 484.111 86.2765L496.035 96.9452ZM501.572 109.975V125.975C506.942 125.975 511.953 123.281 514.916 118.803C517.879 114.324 518.398 108.658 516.297 103.716L501.572 109.975ZM493.429 109.975H477.429C477.429 118.811 484.592 125.975 493.429 125.975V109.975ZM493.429 49.7136V33.7136C484.592 33.7136 477.429 40.877 477.429 49.7136H493.429ZM519.976 49.7136H535.976C535.976 40.877 528.813 33.7136 519.976 33.7136V49.7136ZM519.976 129.519V145.519C528.813 145.519 535.976 138.355 535.976 129.519H519.976ZM500.432 129.519L485.223 134.488C487.373 141.068 493.51 145.519 500.432 145.519V129.519ZM495.057 113.069L496.942 97.1806C491.52 96.5372 486.144 98.7038 482.682 102.927C479.221 107.151 478.153 112.848 479.849 118.038L495.057 113.069ZM504.667 114.209L516.625 124.839C520.585 120.385 521.74 114.099 519.624 108.527C517.507 102.956 512.47 99.0228 506.552 98.3207L504.667 114.209ZM495.709 122.678L505.504 135.33C505.587 135.265 505.67 135.199 505.753 135.133L495.709 122.678ZM484.797 129.193L491.099 143.899C491.165 143.871 491.23 143.843 491.295 143.814L484.797 129.193ZM472.744 131.636V115.636C468.313 115.636 465.95 114.958 464.901 114.479L458.249 129.03L451.597 143.582C458.149 146.577 465.449 147.636 472.744 147.636V131.636ZM458.249 129.03L465.062 114.553C463.53 113.832 462.957 113.181 462.702 112.819L449.617 122.027L436.532 131.235C440.404 136.736 445.585 140.754 451.436 143.507L458.249 129.03ZM449.617 122.027L462.857 113.043C462.026 111.818 461.309 110.248 460.839 108.132L445.22 111.603L429.601 115.074C430.868 120.777 433.083 126.155 436.378 131.011L449.617 122.027ZM445.22 111.603L460.941 108.629C460.386 105.697 460.08 102.412 460.08 98.7368H444.08H428.08C428.08 104.182 428.533 109.475 429.499 114.578L445.22 111.603ZM444.08 98.7368H460.08V49.7136H444.08H428.08V98.7368H444.08ZM444.08 49.7136V65.7136H470.464V49.7136V33.7136H444.08V49.7136ZM470.464 49.7136H454.464V95.8052H470.464H486.464V49.7136H470.464ZM470.464 95.8052H454.464C454.464 100.557 455.1 109.399 461.857 115.673L472.744 103.949L483.632 92.2239C485.675 94.1215 486.302 96.0415 486.442 96.54C486.582 97.0425 486.464 96.9194 486.464 95.8052H470.464ZM472.744 103.949L462.749 116.442C467.746 120.44 473.547 121.903 478.933 121.903V105.903V89.903C479.072 89.903 479.585 89.9214 480.331 90.157C481.11 90.4029 481.956 90.8279 482.74 91.4547L472.744 103.949ZM478.933 105.903V121.903C482.705 121.903 486.405 121.268 489.959 120.014L484.634 104.926L479.309 89.8379C479.171 89.8866 479.071 89.903 478.933 89.903V105.903ZM484.634 104.926L489.693 120.105C493.268 118.913 496.559 117.185 499.561 115.066L490.334 101.994L481.107 88.9227C480.417 89.4097 479.908 89.6356 479.574 89.7468L484.634 104.926ZM490.334 101.994L499.209 115.307C502.466 113.136 505.367 110.51 507.958 107.614L496.035 96.9452L484.111 86.2765C483.01 87.5068 482.111 88.2467 481.459 88.6813L490.334 101.994ZM496.035 96.9452L481.309 103.203L486.847 116.233L501.572 109.975L516.297 103.716L510.76 90.687L496.035 96.9452ZM501.572 109.975V93.9747H493.429V109.975V125.975H501.572V109.975ZM493.429 109.975H509.429V49.7136H493.429H477.429V109.975H493.429ZM493.429 49.7136V65.7136H519.976V49.7136V33.7136H493.429V49.7136ZM519.976 49.7136H503.976V129.519H519.976H535.976V49.7136H519.976ZM519.976 129.519V113.519H500.432V129.519V145.519H519.976V129.519ZM500.432 129.519L515.641 124.55L510.266 108.1L495.057 113.069L479.849 118.038L485.223 134.488L500.432 129.519ZM495.057 113.069L493.172 128.958L502.781 130.098L504.667 114.209L506.552 98.3207L496.942 97.1806L495.057 113.069ZM504.667 114.209L492.708 103.579C490.745 105.788 488.412 108.008 485.665 110.224L495.709 122.678L505.753 135.133C509.737 131.92 513.376 128.494 516.625 124.839L504.667 114.209ZM495.709 122.678L485.914 110.027C483.569 111.842 481.039 113.354 478.298 114.572L484.797 129.193L491.295 143.814C496.372 141.558 501.117 138.726 505.504 135.33L495.709 122.678ZM484.797 129.193L478.494 114.487C476.734 115.241 474.866 115.636 472.744 115.636V131.636V147.636C479.092 147.636 485.259 146.403 491.099 143.899L484.797 129.193ZM544.192 127.89L537.54 142.442C537.656 142.495 537.773 142.546 537.89 142.596L544.192 127.89ZM534.909 119.584L521.189 127.816C521.246 127.911 521.304 128.005 521.363 128.099L534.909 119.584ZM531.489 18.6058V2.60582C522.652 2.60582 515.489 9.76926 515.489 18.6058H531.489ZM557.71 18.6058H573.71C573.71 9.76926 566.547 2.60582 557.71 2.60582V18.6058ZM559.665 103.134L548.853 114.929C549.192 115.24 549.545 115.536 549.91 115.816L559.665 103.134ZM565.365 104.763H581.365C581.365 95.9263 574.202 88.7629 565.365 88.7629V104.763ZM565.365 129.682L568.836 145.301C576.157 143.674 581.365 137.181 581.365 129.682H565.365ZM561.131 130.17L560.191 114.198C560.172 114.199 560.152 114.2 560.133 114.201L561.131 130.17ZM556.408 130.333V114.333C554.12 114.333 552.204 113.916 550.495 113.184L544.192 127.89L537.89 142.596C543.781 145.121 550.009 146.333 556.408 146.333V130.333ZM544.192 127.89L550.845 113.339C550.094 112.996 549.313 112.433 548.455 111.069L534.909 119.584L521.363 128.099C525.283 134.335 530.69 139.31 537.54 142.442L544.192 127.89ZM534.909 119.584L548.629 111.352C548.341 110.872 547.489 108.992 547.489 104.437H531.489H515.489C515.489 112.477 516.917 120.695 521.189 127.816L534.909 119.584ZM531.489 104.437H547.489V18.6058H531.489H515.489V104.437H531.489ZM531.489 18.6058V34.6058H557.71V18.6058V2.60582H531.489V18.6058ZM557.71 18.6058H541.71V95.1537H557.71H573.71V18.6058H557.71ZM557.71 95.1537H541.71C541.71 97.9224 541.916 101.016 542.658 104.049C543.353 106.887 544.915 111.318 548.853 114.929L559.665 103.134L570.476 91.3398C571.845 92.5938 572.642 93.8641 573.08 94.7279C573.513 95.5816 573.685 96.2141 573.74 96.4374C573.831 96.8103 573.71 96.5109 573.71 95.1537H557.71ZM559.665 103.134L549.91 115.816C554.938 119.684 560.645 120.763 565.365 120.763V104.763V88.7629C565.371 88.7629 565.479 88.763 565.675 88.7878C565.871 88.8126 566.169 88.864 566.544 88.9713C567.322 89.1937 568.359 89.6362 569.42 90.4522L559.665 103.134ZM565.365 104.763H549.365V129.682H565.365H581.365V104.763H565.365ZM565.365 129.682L561.894 114.063C562.118 114.013 562.103 114.03 561.74 114.072C561.404 114.111 560.899 114.156 560.191 114.198L561.131 130.17L562.07 146.143C564.183 146.018 566.602 145.797 568.836 145.301L565.365 129.682ZM561.131 130.17L560.133 114.201C558.655 114.294 557.42 114.333 556.408 114.333V130.333V146.333C558.218 146.333 560.132 146.264 562.129 146.139L561.131 130.17ZM587.079 125.936L579.223 139.874C579.258 139.894 579.294 139.914 579.33 139.934L587.079 125.936ZM587.079 53.1338L595.311 66.8537C595.335 66.8393 595.359 66.8249 595.383 66.8104L587.079 53.1338ZM629.75 53.2967L638.34 39.7981V39.7981L629.75 53.2967ZM643.594 68.4434L629.383 75.7941C629.4 75.8279 629.418 75.8616 629.435 75.8953L643.594 68.4434ZM647.829 97.4338V113.434C655.17 113.434 661.57 108.437 663.351 101.314L647.829 97.4338ZM587.73 97.4338H571.73C571.73 106.27 578.894 113.434 587.73 113.434V97.4338ZM587.73 79.5184V63.5184C578.894 63.5184 571.73 70.6818 571.73 79.5184H587.73ZM627.47 79.5184L642.382 85.3175C644.297 80.3947 643.658 74.8443 640.676 70.4847C637.694 66.1252 632.752 63.5184 627.47 63.5184V79.5184ZM625.19 85.3816H609.19C609.19 93.0805 614.673 99.6877 622.24 101.107C629.807 102.527 637.312 98.3561 640.102 91.1808L625.19 85.3816ZM621.118 72.8408L633.41 62.5979V62.5978L621.118 72.8408ZM596.199 72.5151L584.886 61.2014V61.2014L596.199 72.5151ZM596.525 106.554L585.608 118.251C585.679 118.317 585.75 118.383 585.822 118.447L596.525 106.554ZM621.281 108.346L629.906 121.822C629.95 121.794 629.994 121.766 630.037 121.738L621.281 108.346ZM628.284 101.343L635.854 87.2468C628.54 83.3187 619.436 85.6378 614.893 92.5867L628.284 101.343ZM645.874 110.789L659.93 118.433C661.964 114.693 662.424 110.295 661.206 106.215C659.989 102.135 657.196 98.7077 653.444 96.6931L645.874 110.789ZM631.053 125.61L638.764 139.629C638.823 139.597 638.882 139.564 638.941 139.53L631.053 125.61ZM608.252 130.985V114.985C602.501 114.985 598.189 113.798 594.828 111.937L587.079 125.936L579.33 139.934C588.129 144.805 597.933 146.985 608.252 146.985V130.985ZM587.079 125.936L594.935 111.997C591.655 110.148 589.101 107.587 587.128 103.959L573.072 111.603L559.017 119.248C563.775 127.998 570.559 134.991 579.223 139.874L587.079 125.936ZM573.072 111.603L587.128 103.959C585.272 100.547 584.023 95.9522 584.023 89.6162H568.023H552.023C552.023 100.218 554.141 110.282 559.017 119.248L573.072 111.603ZM568.023 89.6162H584.023C584.023 83.7307 585.222 79.1657 587.183 75.4968L573.072 67.9548L558.961 60.4127C554.19 69.339 552.023 79.2149 552.023 89.6162H568.023ZM573.072 67.9548L587.183 75.4968C589.221 71.6846 591.887 68.9082 595.311 66.8537L587.079 53.1338L578.847 39.4139C570.327 44.5256 563.656 51.6299 558.961 60.4127L573.072 67.9548ZM587.079 53.1338L595.383 66.8104C598.647 64.8282 602.757 63.5963 608.252 63.5963V47.5963V31.5963C597.677 31.5963 587.671 34.0561 578.775 39.4572L587.079 53.1338ZM608.252 47.5963V63.5963C614.129 63.5963 618.19 64.9051 621.16 66.7952L629.75 53.2967L638.34 39.7981C629.367 34.0877 619.096 31.5963 608.252 31.5963V47.5963ZM629.75 53.2967L621.16 66.7952C624.744 69.0759 627.421 72.0019 629.383 75.7941L643.594 68.4434L657.806 61.0926C653.252 52.2897 646.7 45.1179 638.34 39.7981L629.75 53.2967ZM643.594 68.4434L629.435 75.8953C631.363 79.5585 632.48 83.9074 632.48 89.2905H648.48H664.48C664.48 79.2553 662.339 69.7062 657.753 60.9914L643.594 68.4434ZM648.48 89.2905H632.48C632.48 90.7061 632.435 91.8624 632.364 92.7865L648.317 94.0136L664.27 95.2407C664.416 93.3418 664.48 91.3493 664.48 89.2905H648.48ZM648.317 94.0136L632.364 92.7865C632.331 93.2209 632.297 93.5056 632.274 93.6646C632.25 93.8353 632.25 93.7778 632.306 93.5532L647.829 97.4338L663.351 101.314C663.873 99.2252 664.127 97.0966 664.27 95.2407L648.317 94.0136ZM647.829 97.4338V81.4338H587.73V97.4338V113.434H647.829V97.4338ZM587.73 97.4338H603.73V79.5184H587.73H571.73V97.4338H587.73ZM587.73 79.5184V95.5184H627.47V79.5184V63.5184H587.73V79.5184ZM627.47 79.5184L612.558 73.7192L610.278 79.5825L625.19 85.3816L640.102 91.1808L642.382 85.3175L627.47 79.5184ZM625.19 85.3816H641.19C641.19 77.3288 638.984 69.2863 633.41 62.5979L621.118 72.8408L608.827 83.0837C608.832 83.0903 608.881 83.1352 608.954 83.3599C609.039 83.6209 609.19 84.2435 609.19 85.3816H625.19ZM621.118 72.8408L633.41 62.5978C626.724 54.5753 617.295 51.9548 608.577 51.9548V67.9548V83.9548C609.907 83.9548 610.31 84.1515 610.139 84.0847C610.04 84.0462 609.826 83.9484 609.556 83.7575C609.283 83.564 609.032 83.3305 608.827 83.0838L621.118 72.8408ZM608.577 67.9548V51.9548C600.083 51.9548 591.544 54.5435 584.886 61.2014L596.199 72.5151L607.513 83.8288C607.458 83.884 607.374 83.9541 607.273 84.0185C607.226 84.0486 607.184 84.0713 607.152 84.0872C607.12 84.103 607.103 84.1092 607.105 84.1083C607.108 84.1074 607.21 84.0699 607.443 84.0319C607.68 83.9934 608.05 83.9548 608.577 83.9548V67.9548ZM596.199 72.5151L584.886 61.2014C578.292 67.7952 575.639 76.2354 575.639 84.7301H591.639H607.639C607.639 83.7632 607.782 83.4088 607.769 83.4451C607.763 83.461 607.734 83.5303 607.673 83.6251C607.612 83.7205 607.551 83.7909 607.513 83.8288L596.199 72.5151ZM591.639 84.7301H575.639V93.6879H591.639H607.639V84.7301H591.639ZM591.639 93.6879H575.639C575.639 102.508 578.353 111.48 585.608 118.251L596.525 106.554L607.442 94.8576C607.522 94.9323 607.616 95.039 607.7 95.165C607.74 95.2239 607.769 95.2758 607.79 95.3162C607.811 95.3564 607.819 95.3786 607.819 95.3775C607.818 95.3769 607.774 95.261 607.729 94.9906C607.684 94.7167 607.639 94.2916 607.639 93.6879H591.639ZM596.525 106.554L585.822 118.447C592.89 124.808 601.747 126.952 610.206 126.952V110.952V94.9519C608.578 94.9519 607.674 94.7453 607.285 94.6201C606.952 94.5132 607.028 94.4812 607.229 94.6617L596.525 106.554ZM610.206 110.952V126.952C616.633 126.952 623.706 125.79 629.906 121.822L621.281 108.346L612.656 94.8696C613.064 94.6084 613.202 94.634 612.812 94.7257C612.405 94.8214 611.578 94.9519 610.206 94.9519V110.952ZM621.281 108.346L630.037 121.738C634.709 118.683 638.621 114.77 641.676 110.099L628.284 101.343L614.893 92.5867C614.256 93.5612 613.5 94.3173 612.525 94.9545L621.281 108.346ZM628.284 101.343L620.714 115.439L638.304 124.885L645.874 110.789L653.444 96.6931L635.854 87.2468L628.284 101.343ZM645.874 110.789L631.818 103.145C629.972 106.539 627.249 109.376 623.165 111.69L631.053 125.61L638.941 139.53C647.887 134.461 655.044 127.417 659.93 118.433L645.874 110.789ZM631.053 125.61L623.342 111.591C619.56 113.671 614.698 114.985 608.252 114.985V130.985V146.985C619.178 146.985 629.517 144.715 638.764 139.629L631.053 125.61Z" fill="white" mask="url(#path-1-outside-1_45_500)"/>
</g>
<defs>
<filter id="filter0_d_45_500" x="0" y="0" width="670.195" height="154.002" filterUnits="userSpaceOnUse" color-interpolation-filters="sRGB">
<feFlood flood-opacity="0" result="BackgroundImageFix"/>
<feColorMatrix in="SourceAlpha" type="matrix" values="0 0 0 0 0 0 0 0 0 0 0 0 0 0 0 0 0 0 127 0" result="hardAlpha"/>
<feOffset dx="5.71466" dy="5.71466"/>
<feComposite in2="hardAlpha" operator="out"/>
<feColorMatrix type="matrix" values="0 0 0 0 0.765274 0 0 0 0 0.847066 0 0 0 0 0.85822 0 0 0 1 0"/>
<feBlend mode="normal" in2="BackgroundImageFix" result="effect1_dropShadow_45_500"/>
<feBlend mode="normal" in="SourceGraphic" in2="effect1_dropShadow_45_500" result="shape"/>
</filter>
</defs>
</svg>
